# WaveFront *.obj file (generated by Autodesk ATF)

mtllib 55b35ca1-1b20-440f-87a4-a65608b737d2.mtl

g Body1

v 2.000000 12.000000 95.000000
v 2.000000 12.000000 0.000000
v 1.000000 12.000000 0.000000
v 1.000000 12.000000 95.000000
v 2.000000 2.000000 95.000000
v 2.000000 2.000000 0.000000
v 1.000000 1.000000 95.000000
v 17.000000 1.000000 95.000000
v 17.000000 2.000000 95.000000
v 1.000000 1.000000 0.000000
v 17.000000 1.000000 0.000000
v 17.000000 2.000000 0.000000
vt 4.750000 0.100000 0.000000
vt -4.750000 0.100000 0.000000
vt 4.750000 0.000000 0.000000
vt -4.750000 0.000000 0.000000
vt -4.750000 -0.300000 0.000000
vt 4.750000 -0.300000 0.000000
vt -4.750000 0.700000 0.000000
vt 4.750000 0.700000 0.000000
vt 1.100000 0.650000 0.000000
vt 0.000000 0.650000 0.000000
vt 0.100000 0.550000 0.000000
vt 0.000000 -0.950000 0.000000
vt 0.100000 -0.950000 0.000000
vt 1.100000 0.550000 0.000000
vt -4.750000 -0.950000 0.000000
vt 4.750000 -0.950000 0.000000
vt -4.750000 0.650000 0.000000
vt 4.750000 0.650000 0.000000
vt -4.750000 0.000000 0.000000
vt 4.750000 0.000000 0.000000
vt -4.750000 0.100000 0.000000
vt 4.750000 0.100000 0.000000
vt -0.100000 -0.950000 0.000000
vt -0.000000 -0.950000 0.000000
vt -0.100000 0.550000 0.000000
vt -0.000000 0.650000 0.000000
vt -1.100000 0.650000 0.000000
vt -1.100000 0.550000 0.000000
vt -4.750000 0.000000 0.000000
vt 4.750000 0.000000 0.000000
vt -4.750000 1.100000 0.000000
vt 4.750000 1.100000 0.000000
vt 4.750000 0.550000 0.000000
vt -4.750000 0.550000 0.000000
vt 4.750000 -0.950000 0.000000
vt -4.750000 -0.950000 0.000000
vn 0.000000 0.100000 0.000000
vn 0.000000 0.100000 0.000000
vn 0.000000 0.100000 0.000000
vn 0.000000 0.100000 0.000000
vn 0.100000 0.000000 0.000000
vn 0.100000 0.000000 0.000000
vn 0.100000 0.000000 0.000000
vn 0.100000 0.000000 0.000000
vn 0.000000 0.000000 0.100000
vn 0.000000 0.000000 0.100000
vn 0.000000 0.000000 0.100000
vn 0.000000 0.000000 0.100000
vn 0.000000 0.000000 0.100000
vn 0.000000 0.000000 0.100000
vn 0.000000 -0.100000 0.000000
vn 0.000000 -0.100000 0.000000
vn 0.000000 -0.100000 0.000000
vn 0.000000 -0.100000 0.000000
vn 0.100000 0.000000 0.000000
vn 0.100000 0.000000 0.000000
vn 0.100000 0.000000 0.000000
vn 0.100000 0.000000 0.000000
vn 0.000000 0.000000 -0.100000
vn 0.000000 0.000000 -0.100000
vn 0.000000 0.000000 -0.100000
vn 0.000000 0.000000 -0.100000
vn 0.000000 0.000000 -0.100000
vn 0.000000 0.000000 -0.100000
vn -0.100000 0.000000 0.000000
vn -0.100000 0.000000 0.000000
vn -0.100000 0.000000 0.000000
vn -0.100000 0.000000 0.000000
vn -0.000000 0.100000 -0.000000
vn -0.000000 0.100000 -0.000000
vn -0.000000 0.100000 -0.000000
vn -0.000000 0.100000 -0.000000
usemtl Steel_-_Satin
f 1/1/1 2/2/2 4/3/3
f 4/3/3 2/2/2 3/4/4
f 5/5/5 6/6/6 1/7/7
f 1/7/7 6/6/6 2/8/8
f 4/9/9 7/10/10 5/11/11
f 5/11/11 7/10/10 8/12/12
f 5/11/11 8/12/12 9/13/13
f 5/11/11 1/14/14 4/9/9
f 11/15/15 8/16/16 10/17/17
f 10/17/17 8/16/16 7/18/18
f 8/19/19 11/20/20 9/21/21
f 9/21/21 11/20/20 12/22/22
f 12/23/23 11/24/24 6/25/25
f 6/25/25 11/24/24 10/26/26
f 6/25/25 10/26/26 3/27/27
f 3/27/27 2/28/28 6/25/25
f 10/29/29 7/30/30 3/31/31
f 3/31/31 7/30/30 4/32/32
f 6/33/33 5/34/34 12/35/35
f 12/35/35 5/34/34 9/36/36
# 12 vertices
# 36 texture params
# 36 normals
# 20 facets

# 1 groups
