# WaveFront *.obj file (generated by Autodesk ATF)

mtllib f4b70105-17e7-48a7-86ea-1310211762fd.mtl

g Body5

v 10.898138 16.000000 16.000000
v 10.898138 15.000000 16.000000
v 60.000001 15.000000 16.000000
v 60.000001 16.000000 16.000000
v 60.000001 16.000000 -0.000000
v -0.726543 16.000000 0.000000
v -19.492076 16.000000 57.754375
v -4.275172 16.000000 62.698647
v -0.726543 0.000000 0.000000
v 60.000000 0.000000 0.000000
v 60.000000 0.000000 1.000000
v 0.000000 0.000000 1.000000
v -18.541020 0.000000 58.063391
v -19.492076 0.000000 57.754374
v -0.000000 15.000000 1.000000
v -18.541020 15.000000 58.063392
v 60.000000 15.000000 1.000000
v -4.275172 15.000000 62.698647
vt 0.050000 1.910186 0.000000
vt -0.050000 1.910186 0.000000
vt 0.050000 -3.000000 0.000000
vt -0.050000 -3.000000 0.000000
vt 5.419865 3.427517 0.000000
vt 4.925437 4.949208 0.000000
vt 0.750000 1.910186 0.000000
vt -0.850000 3.072654 0.000000
vt -0.850000 -3.000000 0.000000
vt 0.750000 -3.000000 0.000000
vt 0.050000 -3.000000 0.000000
vt 0.050000 3.072654 0.000000
vt -0.050000 3.000000 0.000000
vt -5.725437 4.949208 0.000000
vt -5.756339 4.854102 0.000000
vt -0.050000 -3.000000 0.000000
vt -0.750000 -3.000000 0.000000
vt 0.750000 -3.000000 0.000000
vt -0.750000 3.000000 0.000000
vt 0.750000 3.000000 0.000000
vt -0.050000 -0.750000 0.000000
vt 0.050000 -0.750000 0.000000
vt -0.050000 0.750000 0.000000
vt 0.050000 0.850000 0.000000
vt -1.550000 0.850000 0.000000
vt -1.550000 0.750000 0.000000
vt 0.750000 3.072654 0.000000
vt -0.850000 3.072654 0.000000
vt 0.750000 -3.000000 0.000000
vt -0.850000 -3.000000 0.000000
vt 0.750000 3.000000 0.000000
vt -0.750000 3.000000 0.000000
vt 0.750000 -3.000000 0.000000
vt -0.750000 -3.000000 0.000000
vt -0.750000 3.072654 0.000000
vt -0.750000 -3.000000 0.000000
vt 0.850000 3.072654 0.000000
vt 0.850000 -3.000000 0.000000
vt 0.050000 1.910186 0.000000
vt -0.050000 1.910186 0.000000
vt 0.050000 -3.000000 0.000000
vt -0.050000 -3.000000 0.000000
vt 0.750000 -0.050000 0.000000
vt 0.750000 0.050000 0.000000
vt -0.750000 -0.050000 0.000000
vt -0.850000 0.050000 0.000000
vt -0.850000 -1.550000 0.000000
vt -0.750000 -1.550000 0.000000
vt -0.750000 -3.000000 0.000000
vt 0.750000 -3.000000 0.000000
vt -0.750000 1.910186 0.000000
vt 0.750000 3.000000 0.000000
vt -4.956339 4.854102 0.000000
vt -5.419865 3.427517 0.000000
vn 0.000000 0.000000 0.100000
vn 0.000000 0.000000 0.100000
vn 0.000000 0.000000 0.100000
vn 0.000000 0.000000 0.100000
vn -0.000000 0.100000 -0.000000
vn -0.000000 0.100000 -0.000000
vn -0.000000 0.100000 -0.000000
vn -0.000000 0.100000 -0.000000
vn -0.000000 0.100000 -0.000000
vn -0.000000 0.100000 -0.000000
vn 0.000000 -0.100000 0.000000
vn 0.000000 -0.100000 0.000000
vn 0.000000 -0.100000 0.000000
vn 0.000000 -0.100000 0.000000
vn 0.000000 -0.100000 0.000000
vn 0.000000 -0.100000 0.000000
vn 0.095106 -0.000000 0.030902
vn 0.095106 -0.000000 0.030902
vn 0.095106 -0.000000 0.030902
vn 0.095106 -0.000000 0.030902
vn 0.100000 0.000000 0.000000
vn 0.100000 0.000000 0.000000
vn 0.100000 0.000000 0.000000
vn 0.100000 0.000000 0.000000
vn 0.100000 0.000000 0.000000
vn 0.100000 0.000000 0.000000
vn 0.000000 0.000000 -0.100000
vn 0.000000 0.000000 -0.100000
vn 0.000000 0.000000 -0.100000
vn 0.000000 0.000000 -0.100000
vn 0.000000 0.000000 0.100000
vn 0.000000 0.000000 0.100000
vn 0.000000 0.000000 0.100000
vn 0.000000 0.000000 0.100000
vn -0.095106 0.000000 -0.030902
vn -0.095106 0.000000 -0.030902
vn -0.095106 0.000000 -0.030902
vn -0.095106 0.000000 -0.030902
vn 0.095106 -0.000000 0.030902
vn 0.095106 -0.000000 0.030902
vn 0.095106 -0.000000 0.030902
vn 0.095106 -0.000000 0.030902
vn -0.030902 0.000000 0.095106
vn -0.030902 0.000000 0.095106
vn -0.030902 0.000000 0.095106
vn -0.030902 0.000000 0.095106
vn -0.030902 0.000000 0.095106
vn -0.030902 0.000000 0.095106
vn 0.000000 -0.100000 0.000000
vn 0.000000 -0.100000 0.000000
vn 0.000000 -0.100000 0.000000
vn 0.000000 -0.100000 0.000000
vn 0.000000 -0.100000 0.000000
vn 0.000000 -0.100000 0.000000
usemtl Steel_-_Satin
f 1/1/1 2/2/2 4/3/3
f 4/3/3 2/2/2 3/4/4
f 4/5/5 5/6/6 1/7/7
f 1/7/7 5/6/6 6/8/8
f 1/7/7 6/8/8 7/9/9
f 7/9/9 8/10/10 1/7/7
f 14/11/11 9/12/12 12/13/13
f 12/13/13 9/12/12 10/14/14
f 12/13/13 10/14/14 11/15/15
f 12/13/13 13/16/16 14/11/11
f 16/17/17 13/18/18 15/19/19
f 15/19/19 13/18/18 12/20/20
f 11/21/21 10/22/22 17/23/23
f 17/23/23 10/22/22 5/24/24
f 17/23/23 5/24/24 4/25/25
f 4/25/25 3/26/26 17/23/23
f 9/27/27 6/28/28 10/29/29
f 10/29/29 6/28/28 5/30/30
f 15/31/31 12/32/32 17/33/33
f 17/33/33 12/32/32 11/34/34
f 9/35/35 14/36/36 6/37/37
f 6/37/37 14/36/36 7/38/38
f 2/39/39 1/40/40 18/41/41
f 18/41/41 1/40/40 8/42/42
f 18/43/43 8/44/44 16/45/45
f 16/45/45 8/44/44 7/46/46
f 16/45/45 7/46/46 14/47/47
f 14/47/47 13/48/48 16/45/45
f 18/49/49 16/50/50 2/51/51
f 2/51/51 16/50/50 15/52/52
f 2/51/51 15/52/52 17/53/53
f 17/53/53 3/54/54 2/51/51
# 18 vertices
# 54 texture params
# 54 normals
# 32 facets

# 1 groups
